<svg xmlns="http://www.w3.org/2000/svg" viewBox="0 0 96 96" role="img" aria-labelledby="title desc">
  <title id="title">Hrafnsyn logo</title>
  <desc id="desc">A stylized raven eye combining maritime and aviation route motifs.</desc>
  <defs>
    <linearGradient id="sky" x1="18" y1="22" x2="76" y2="74" gradientUnits="userSpaceOnUse">
      <stop offset="0" stop-color="#6ce7ff"/>
      <stop offset="1" stop-color="#1f9cf5"/>
    </linearGradient>
    <linearGradient id="sea" x1="20" y1="70" x2="74" y2="44" gradientUnits="userSpaceOnUse">
      <stop offset="0" stop-color="#ff934f"/>
      <stop offset="1" stop-color="#f4c95d"/>
    </linearGradient>
  </defs>

  <rect width="96" height="96" rx="24" fill="#06131f"/>
  <path
    d="M12 49c10-17 24-25 36-25 14 0 27 7 36 25-9 17-22 25-36 25-12 0-26-8-36-25Z"
    fill="#0f2436"
    stroke="#17354d"
    stroke-width="2"
  />
  <path
    d="M20 49c7-12 17-18 28-18 9 0 18 4 26 12l-7 3c-6-5-12-8-19-8-8 0-16 4-22 11 6 7 14 11 22 11 7 0 14-3 19-8l7 3c-8 8-17 12-26 12-11 0-21-6-28-18Z"
    fill="url(#sky)"
    opacity="0.95"
  />
  <path
    d="M20 49c7 12 17 18 28 18 9 0 18-4 26-12l-6-2c-6 5-13 8-20 8-8 0-15-4-22-12 7-8 14-12 22-12 7 0 14 3 20 8l6-2c-8-8-17-12-26-12-11 0-21 6-28 18Z"
    fill="url(#sea)"
    opacity="0.42"
  />
  <circle cx="48" cy="49" r="11.5" fill="#04101a" stroke="#d6f8ff" stroke-width="2"/>
  <circle cx="48" cy="49" r="4.75" fill="#f4c95d"/>
  <path d="M57 30l10-7-3 11-2-2-7 5-2-2 7-5Z" fill="#6ce7ff"/>
  <path d="M28 69l8 4h-7l-3 4-1-6-6-3h6l2-5 1 6Z" fill="#ff934f"/>
  <path d="M22 60c7 6 15 9 24 9" fill="none" stroke="#6ce7ff" stroke-width="2.5" stroke-linecap="round" stroke-dasharray="2 6" opacity="0.8"/>
  <path d="M74 38c-7-6-15-9-24-9" fill="none" stroke="#f4c95d" stroke-width="2.5" stroke-linecap="round" stroke-dasharray="2 6" opacity="0.8"/>
</svg>
